<svg width="104" height="104" viewBox="0 0 104 104" fill="none" xmlns="http://www.w3.org/2000/svg">
<path d="M28.93 29.1999L26.2689 26.5387C23.683 23.9528 22.2303 20.4456 22.2303 16.7887V14.4943C22.2303 8.14622 27.3764 3.00011 33.7245 3.00011C40.0771 3.00011 45.2251 8.15332 45.2186 14.5059L45.2018 31.0936C45.1939 38.9025 38.8615 45.2287 31.0527 45.2291L14.5003 45.2299C8.14893 45.2302 3 40.0815 3 33.7301C3 27.379 8.1486 22.2304 14.4997 22.2304H22.5M73.9312 28.93L76.5924 26.2689C79.1782 23.683 82.6854 22.2303 86.3424 22.2303H88.6368C94.9848 22.2303 100.131 27.3764 100.131 33.7245C100.131 40.0771 94.9777 45.2251 88.6251 45.2186L72.0374 45.2018C64.2285 45.1939 57.9023 38.8615 57.9019 31.0527L57.9012 14.5003C57.9009 8.14893 63.0496 3 69.4009 3C75.752 3 80.9006 8.1486 80.9006 14.4997V22.5M74.201 73.9312L76.8622 76.5924C79.448 79.1782 80.9007 82.6854 80.9007 86.3424V88.6368C80.9007 94.9848 75.7546 100.131 69.4066 100.131C63.054 100.131 57.906 94.9777 57.9124 88.6251L57.9292 72.0374C57.9371 64.2285 64.2695 57.9023 72.0784 57.9019L88.6308 57.9012C94.9821 57.9009 100.131 63.0496 100.131 69.4009C100.131 75.752 94.9824 80.9007 88.6313 80.9007L80.631 80.9006M29.1999 74.201L26.5387 76.8622C23.9528 79.448 20.4456 80.9007 16.7887 80.9007H14.4943C8.14622 80.9007 3.00011 75.7546 3.00011 69.4066C3.00011 63.054 8.15332 57.906 14.5059 57.9124L31.0936 57.9292C38.9025 57.9371 45.2287 64.2695 45.2291 72.0784L45.2299 88.6308C45.2302 94.9821 40.0815 100.131 33.7301 100.131C27.379 100.131 22.2304 94.9824 22.2304 88.6313L22.2304 80.631" stroke="#0A25FD" stroke-width="6" stroke-linecap="round" stroke-linejoin="round"/>
</svg>
