<svg width="345" height="104" viewBox="0 0 345 104" fill="none" xmlns="http://www.w3.org/2000/svg">
<path d="M28.93 29.1999L26.2689 26.5387C23.683 23.9528 22.2303 20.4456 22.2303 16.7887V14.4943C22.2303 8.14622 27.3764 3.00011 33.7245 3.00011C40.0771 3.00011 45.2251 8.15332 45.2186 14.5059L45.2018 31.0936C45.1939 38.9025 38.8615 45.2287 31.0527 45.2291L14.5003 45.2299C8.14893 45.2302 3 40.0815 3 33.7301C3 27.379 8.1486 22.2304 14.4997 22.2304H22.5M73.9312 28.93L76.5924 26.2689C79.1782 23.683 82.6854 22.2303 86.3424 22.2303H88.6368C94.9848 22.2303 100.131 27.3764 100.131 33.7245C100.131 40.0771 94.9777 45.2251 88.6251 45.2186L72.0374 45.2018C64.2285 45.1939 57.9023 38.8615 57.9019 31.0527L57.9012 14.5003C57.9009 8.14893 63.0496 3 69.4009 3C75.752 3 80.9006 8.1486 80.9006 14.4997V22.5M74.201 73.9312L76.8622 76.5924C79.448 79.1782 80.9007 82.6854 80.9007 86.3424V88.6368C80.9007 94.9848 75.7546 100.131 69.4066 100.131C63.054 100.131 57.906 94.9777 57.9124 88.6251L57.9292 72.0374C57.9371 64.2285 64.2695 57.9023 72.0784 57.9019L88.6308 57.9012C94.9821 57.9009 100.131 63.0496 100.131 69.4009C100.131 75.752 94.9824 80.9007 88.6313 80.9007L80.631 80.9006M29.1999 74.201L26.5387 76.8622C23.9528 79.448 20.4456 80.9007 16.7887 80.9007H14.4943C8.14622 80.9007 3.00011 75.7546 3.00011 69.4066C3.00011 63.054 8.15332 57.906 14.5059 57.9124L31.0936 57.9292C38.9025 57.9371 45.2287 64.2695 45.2291 72.0784L45.2299 88.6308C45.2302 94.9821 40.0815 100.131 33.7301 100.131C27.379 100.131 22.2304 94.9824 22.2304 88.6313L22.2304 80.631" stroke="#0A25FD" stroke-width="6" stroke-linecap="round" stroke-linejoin="round"/>
<path d="M138.897 82.0654V20.8174H152.26V82.0654H138.897ZM120.801 32.0462V20.8174H170.356V32.0462H120.801ZM181.758 83.3646C179.036 83.3646 176.623 82.8388 174.519 81.787C172.416 80.6734 170.776 79.0958 169.601 77.0542C168.426 75.0126 167.838 72.4761 167.838 69.4446C167.838 66.7844 168.333 64.5572 169.323 62.763C170.374 60.9689 171.89 59.515 173.87 58.4014C175.85 57.2878 178.293 56.3598 181.201 55.6174C184.109 54.875 187.419 54.2254 191.131 53.6686C193.11 53.3593 194.719 53.0809 195.956 52.8334C197.255 52.5241 198.214 52.0601 198.833 51.4414C199.452 50.7609 199.761 49.802 199.761 48.5646C199.761 46.8324 199.142 45.3476 197.905 44.1102C196.668 42.8729 194.719 42.2542 192.059 42.2542C190.264 42.2542 188.594 42.5636 187.047 43.1822C185.563 43.8009 184.263 44.7289 183.15 45.9662C182.098 47.2036 181.325 48.7812 180.83 50.699L169.044 47.0798C169.787 44.5433 170.838 42.347 172.199 40.491C173.622 38.635 175.324 37.0884 177.303 35.851C179.283 34.5518 181.541 33.5929 184.078 32.9742C186.614 32.3556 189.367 32.0462 192.337 32.0462C197.101 32.0462 200.967 32.8196 203.937 34.3662C206.968 35.851 209.227 38.202 210.711 41.419C212.196 44.5742 212.939 48.6574 212.939 53.6686V62.0206C212.939 64.186 212.97 66.3822 213.031 68.6094C213.155 70.8366 213.279 73.0948 213.403 75.3838C213.588 77.611 213.774 79.8382 213.959 82.0654H202.174C201.926 80.5188 201.679 78.7556 201.431 76.7758C201.246 74.7342 201.091 72.6926 200.967 70.651H199.297C198.431 73.002 197.194 75.1364 195.585 77.0542C193.976 78.9721 191.997 80.5188 189.646 81.6942C187.357 82.8078 184.727 83.3646 181.758 83.3646ZM187.419 73.7134C188.594 73.7134 189.77 73.4969 190.945 73.0638C192.182 72.6308 193.358 72.043 194.471 71.3006C195.647 70.4964 196.699 69.5065 197.627 68.331C198.616 67.1556 199.421 65.8254 200.039 64.3406L199.854 56.5454L201.988 57.0094C200.875 57.8137 199.575 58.4633 198.091 58.9582C196.606 59.3913 195.059 59.7316 193.451 59.979C191.904 60.2265 190.357 60.5049 188.811 60.8142C187.264 61.1236 185.872 61.5257 184.635 62.0206C183.459 62.5156 182.5 63.1961 181.758 64.0622C181.077 64.8665 180.737 66.011 180.737 67.4958C180.737 69.4137 181.356 70.9294 182.593 72.043C183.83 73.1566 185.439 73.7134 187.419 73.7134ZM226.484 82.0654V50.8846H218.781V41.0478L231.773 41.6046V39.8414C229.608 39.3465 227.814 38.5732 226.391 37.5214C225.03 36.4078 224.04 35.0777 223.421 33.531C222.803 31.9844 222.493 30.3449 222.493 28.6126C222.493 25.9524 223.174 23.6633 224.535 21.7454C225.896 19.7657 227.814 18.25 230.289 17.1982C232.763 16.0846 235.671 15.5278 239.012 15.5278C241.858 15.5278 244.425 15.899 246.714 16.6414C249.065 17.322 250.952 18.1881 252.375 19.2398L251.54 31.3038C250.055 30.2521 248.385 29.386 246.529 28.7054C244.673 28.0249 242.909 27.6846 241.239 27.6846C239.383 27.6846 237.836 28.1796 236.599 29.1694C235.424 30.1593 234.836 31.7678 234.836 33.995C234.836 35.5417 235.145 36.779 235.764 37.707C236.444 38.5732 237.249 39.2228 238.177 39.6558C239.166 40.027 240.125 40.2745 241.053 40.3982H252.189V50.8846H239.476V82.0654H226.484ZM263.143 82.0654V50.8846H255.441V41.0478L268.433 41.6046V39.8414C266.268 39.3465 264.474 38.5732 263.051 37.5214C261.69 36.4078 260.7 35.0777 260.081 33.531C259.462 31.9844 259.153 30.3449 259.153 28.6126C259.153 25.9524 259.834 23.6633 261.195 21.7454C262.556 19.7657 264.474 18.25 266.948 17.1982C269.423 16.0846 272.331 15.5278 275.671 15.5278C278.517 15.5278 281.085 15.899 283.374 16.6414C285.725 17.322 287.612 18.1881 289.035 19.2398L288.199 31.3038C286.715 30.2521 285.044 29.386 283.188 28.7054C281.332 28.0249 279.569 27.6846 277.899 27.6846C276.043 27.6846 274.496 28.1796 273.259 29.1694C272.083 30.1593 271.495 31.7678 271.495 33.995C271.495 35.5417 271.805 36.779 272.423 37.707C273.104 38.5732 273.908 39.2228 274.836 39.6558C275.826 40.027 276.785 40.2745 277.713 40.3982H288.849V50.8846H276.135V82.0654H263.143ZM294.641 82.0654V15.7134H307.819V52.555C309.737 51.2558 311.562 49.8638 313.294 48.379C315.088 46.8324 316.697 45.2238 318.119 43.5534C319.604 41.883 320.903 40.1817 322.017 38.4494C323.193 36.7172 324.182 35.0158 324.987 33.3454H340.299C339.371 35.6964 338.133 38.0782 336.587 40.491C335.102 42.842 333.308 45.0382 331.204 47.0798C329.163 49.0596 326.781 50.7609 324.059 52.1838C321.337 53.6068 318.336 54.5657 315.057 55.0606V56.6382C319.202 55.8958 322.636 55.9577 325.358 56.8238C328.08 57.69 330.307 59.082 332.039 60.9998C333.834 62.8558 335.257 65.0212 336.308 67.4958C337.36 69.9086 338.319 72.3524 339.185 74.827L341.319 82.0654H326.75L325.543 77.5182C324.677 74.4868 323.718 71.8265 322.667 69.5374C321.615 67.2484 320.223 65.4852 318.491 64.2478C316.82 62.9486 314.5 62.299 311.531 62.299H307.819V82.0654H294.641Z" fill="black"/>
</svg>
